<?xml version="1.0" encoding="utf-8" standalone="no"?>
<!DOCTYPE svg PUBLIC "-//W3C//DTD SVG 1.1//EN"
  "http://www.w3.org/Graphics/SVG/1.1/DTD/svg11.dtd">
<!-- Created with matplotlib (https://matplotlib.org/) -->
<svg height="345.6pt" version="1.1" viewBox="0 0 460.8 345.6" width="460.8pt" xmlns="http://www.w3.org/2000/svg" xmlns:xlink="http://www.w3.org/1999/xlink">
 <defs>
  <style type="text/css">
*{stroke-linecap:butt;stroke-linejoin:round;}
  </style>
 </defs>
 <g id="figure_1">
  <g id="patch_1">
   <path d="M 0 345.6 
L 460.8 345.6 
L 460.8 0 
L 0 0 
z
" style="fill:#ffffff;"/>
  </g>
  <g id="axes_1">
   <g id="patch_2">
    <path d="M 57.6 307.584 
L 414.72 307.584 
L 414.72 41.472 
L 57.6 41.472 
z
" style="fill:#ffffff;"/>
   </g>
   <g id="matplotlib.axis_1">
    <g id="xtick_1">
     <g id="line2d_1">
      <defs>
       <path d="M 0 0 
L 0 3.5 
" id="m9f7b0aa389" style="stroke:#000000;stroke-width:0.8;"/>
      </defs>
      <g>
       <use style="stroke:#000000;stroke-width:0.8;" x="57.6" xlink:href="#m9f7b0aa389" y="307.584"/>
      </g>
     </g>
     <g id="text_1">
      <!-- −10.0 -->
      <defs>
       <path d="M 10.59375 35.5 
L 73.1875 35.5 
L 73.1875 27.203125 
L 10.59375 27.203125 
z
" id="DejaVuSans-8722"/>
       <path d="M 12.40625 8.296875 
L 28.515625 8.296875 
L 28.515625 63.921875 
L 10.984375 60.40625 
L 10.984375 69.390625 
L 28.421875 72.90625 
L 38.28125 72.90625 
L 38.28125 8.296875 
L 54.390625 8.296875 
L 54.390625 0 
L 12.40625 0 
z
" id="DejaVuSans-49"/>
       <path d="M 31.78125 66.40625 
Q 24.171875 66.40625 20.328125 58.90625 
Q 16.5 51.421875 16.5 36.375 
Q 16.5 21.390625 20.328125 13.890625 
Q 24.171875 6.390625 31.78125 6.390625 
Q 39.453125 6.390625 43.28125 13.890625 
Q 47.125 21.390625 47.125 36.375 
Q 47.125 51.421875 43.28125 58.90625 
Q 39.453125 66.40625 31.78125 66.40625 
z
M 31.78125 74.21875 
Q 44.046875 74.21875 50.515625 64.515625 
Q 56.984375 54.828125 56.984375 36.375 
Q 56.984375 17.96875 50.515625 8.265625 
Q 44.046875 -1.421875 31.78125 -1.421875 
Q 19.53125 -1.421875 13.0625 8.265625 
Q 6.59375 17.96875 6.59375 36.375 
Q 6.59375 54.828125 13.0625 64.515625 
Q 19.53125 74.21875 31.78125 74.21875 
z
" id="DejaVuSans-48"/>
       <path d="M 10.6875 12.40625 
L 21 12.40625 
L 21 0 
L 10.6875 0 
z
" id="DejaVuSans-46"/>
      </defs>
      <g transform="translate(42.277344 322.182437)scale(0.1 -0.1)">
       <use xlink:href="#DejaVuSans-8722"/>
       <use x="83.789062" xlink:href="#DejaVuSans-49"/>
       <use x="147.412109" xlink:href="#DejaVuSans-48"/>
       <use x="211.035156" xlink:href="#DejaVuSans-46"/>
       <use x="242.822266" xlink:href="#DejaVuSans-48"/>
      </g>
     </g>
    </g>
    <g id="xtick_2">
     <g id="line2d_2">
      <g>
       <use style="stroke:#000000;stroke-width:0.8;" x="102.24" xlink:href="#m9f7b0aa389" y="307.584"/>
      </g>
     </g>
     <g id="text_2">
      <!-- −7.5 -->
      <defs>
       <path d="M 8.203125 72.90625 
L 55.078125 72.90625 
L 55.078125 68.703125 
L 28.609375 0 
L 18.3125 0 
L 43.21875 64.59375 
L 8.203125 64.59375 
z
" id="DejaVuSans-55"/>
       <path d="M 10.796875 72.90625 
L 49.515625 72.90625 
L 49.515625 64.59375 
L 19.828125 64.59375 
L 19.828125 46.734375 
Q 21.96875 47.46875 24.109375 47.828125 
Q 26.265625 48.1875 28.421875 48.1875 
Q 40.625 48.1875 47.75 41.5 
Q 54.890625 34.8125 54.890625 23.390625 
Q 54.890625 11.625 47.5625 5.09375 
Q 40.234375 -1.421875 26.90625 -1.421875 
Q 22.3125 -1.421875 17.546875 -0.640625 
Q 12.796875 0.140625 7.71875 1.703125 
L 7.71875 11.625 
Q 12.109375 9.234375 16.796875 8.0625 
Q 21.484375 6.890625 26.703125 6.890625 
Q 35.15625 6.890625 40.078125 11.328125 
Q 45.015625 15.765625 45.015625 23.390625 
Q 45.015625 31 40.078125 35.4375 
Q 35.15625 39.890625 26.703125 39.890625 
Q 22.75 39.890625 18.8125 39.015625 
Q 14.890625 38.140625 10.796875 36.28125 
z
" id="DejaVuSans-53"/>
      </defs>
      <g transform="translate(90.098594 322.182437)scale(0.1 -0.1)">
       <use xlink:href="#DejaVuSans-8722"/>
       <use x="83.789062" xlink:href="#DejaVuSans-55"/>
       <use x="147.412109" xlink:href="#DejaVuSans-46"/>
       <use x="179.199219" xlink:href="#DejaVuSans-53"/>
      </g>
     </g>
    </g>
    <g id="xtick_3">
     <g id="line2d_3">
      <g>
       <use style="stroke:#000000;stroke-width:0.8;" x="146.88" xlink:href="#m9f7b0aa389" y="307.584"/>
      </g>
     </g>
     <g id="text_3">
      <!-- −5.0 -->
      <g transform="translate(134.738594 322.182437)scale(0.1 -0.1)">
       <use xlink:href="#DejaVuSans-8722"/>
       <use x="83.789062" xlink:href="#DejaVuSans-53"/>
       <use x="147.412109" xlink:href="#DejaVuSans-46"/>
       <use x="179.199219" xlink:href="#DejaVuSans-48"/>
      </g>
     </g>
    </g>
    <g id="xtick_4">
     <g id="line2d_4">
      <g>
       <use style="stroke:#000000;stroke-width:0.8;" x="191.52" xlink:href="#m9f7b0aa389" y="307.584"/>
      </g>
     </g>
     <g id="text_4">
      <!-- −2.5 -->
      <defs>
       <path d="M 19.1875 8.296875 
L 53.609375 8.296875 
L 53.609375 0 
L 7.328125 0 
L 7.328125 8.296875 
Q 12.9375 14.109375 22.625 23.890625 
Q 32.328125 33.6875 34.8125 36.53125 
Q 39.546875 41.84375 41.421875 45.53125 
Q 43.3125 49.21875 43.3125 52.78125 
Q 43.3125 58.59375 39.234375 62.25 
Q 35.15625 65.921875 28.609375 65.921875 
Q 23.96875 65.921875 18.8125 64.3125 
Q 13.671875 62.703125 7.8125 59.421875 
L 7.8125 69.390625 
Q 13.765625 71.78125 18.9375 73 
Q 24.125 74.21875 28.421875 74.21875 
Q 39.75 74.21875 46.484375 68.546875 
Q 53.21875 62.890625 53.21875 53.421875 
Q 53.21875 48.921875 51.53125 44.890625 
Q 49.859375 40.875 45.40625 35.40625 
Q 44.1875 33.984375 37.640625 27.21875 
Q 31.109375 20.453125 19.1875 8.296875 
z
" id="DejaVuSans-50"/>
      </defs>
      <g transform="translate(179.378594 322.182437)scale(0.1 -0.1)">
       <use xlink:href="#DejaVuSans-8722"/>
       <use x="83.789062" xlink:href="#DejaVuSans-50"/>
       <use x="147.412109" xlink:href="#DejaVuSans-46"/>
       <use x="179.199219" xlink:href="#DejaVuSans-53"/>
      </g>
     </g>
    </g>
    <g id="xtick_5">
     <g id="line2d_5">
      <g>
       <use style="stroke:#000000;stroke-width:0.8;" x="236.16" xlink:href="#m9f7b0aa389" y="307.584"/>
      </g>
     </g>
     <g id="text_5">
      <!-- 0.0 -->
      <g transform="translate(228.208438 322.182437)scale(0.1 -0.1)">
       <use xlink:href="#DejaVuSans-48"/>
       <use x="63.623047" xlink:href="#DejaVuSans-46"/>
       <use x="95.410156" xlink:href="#DejaVuSans-48"/>
      </g>
     </g>
    </g>
    <g id="xtick_6">
     <g id="line2d_6">
      <g>
       <use style="stroke:#000000;stroke-width:0.8;" x="280.8" xlink:href="#m9f7b0aa389" y="307.584"/>
      </g>
     </g>
     <g id="text_6">
      <!-- 2.5 -->
      <g transform="translate(272.848437 322.182437)scale(0.1 -0.1)">
       <use xlink:href="#DejaVuSans-50"/>
       <use x="63.623047" xlink:href="#DejaVuSans-46"/>
       <use x="95.410156" xlink:href="#DejaVuSans-53"/>
      </g>
     </g>
    </g>
    <g id="xtick_7">
     <g id="line2d_7">
      <g>
       <use style="stroke:#000000;stroke-width:0.8;" x="325.44" xlink:href="#m9f7b0aa389" y="307.584"/>
      </g>
     </g>
     <g id="text_7">
      <!-- 5.0 -->
      <g transform="translate(317.488437 322.182437)scale(0.1 -0.1)">
       <use xlink:href="#DejaVuSans-53"/>
       <use x="63.623047" xlink:href="#DejaVuSans-46"/>
       <use x="95.410156" xlink:href="#DejaVuSans-48"/>
      </g>
     </g>
    </g>
    <g id="xtick_8">
     <g id="line2d_8">
      <g>
       <use style="stroke:#000000;stroke-width:0.8;" x="370.08" xlink:href="#m9f7b0aa389" y="307.584"/>
      </g>
     </g>
     <g id="text_8">
      <!-- 7.5 -->
      <g transform="translate(362.128438 322.182437)scale(0.1 -0.1)">
       <use xlink:href="#DejaVuSans-55"/>
       <use x="63.623047" xlink:href="#DejaVuSans-46"/>
       <use x="95.410156" xlink:href="#DejaVuSans-53"/>
      </g>
     </g>
    </g>
    <g id="xtick_9">
     <g id="line2d_9">
      <g>
       <use style="stroke:#000000;stroke-width:0.8;" x="414.72" xlink:href="#m9f7b0aa389" y="307.584"/>
      </g>
     </g>
     <g id="text_9">
      <!-- 10.0 -->
      <g transform="translate(403.587188 322.182437)scale(0.1 -0.1)">
       <use xlink:href="#DejaVuSans-49"/>
       <use x="63.623047" xlink:href="#DejaVuSans-48"/>
       <use x="127.246094" xlink:href="#DejaVuSans-46"/>
       <use x="159.033203" xlink:href="#DejaVuSans-48"/>
      </g>
     </g>
    </g>
   </g>
   <g id="matplotlib.axis_2">
    <g id="ytick_1">
     <g id="line2d_10">
      <defs>
       <path d="M 0 0 
L -3.5 0 
" id="ma2275ffbc4" style="stroke:#000000;stroke-width:0.8;"/>
      </defs>
      <g>
       <use style="stroke:#000000;stroke-width:0.8;" x="57.6" xlink:href="#ma2275ffbc4" y="307.584"/>
      </g>
     </g>
     <g id="text_10">
      <!-- −10.0 -->
      <g transform="translate(19.954687 311.383219)scale(0.1 -0.1)">
       <use xlink:href="#DejaVuSans-8722"/>
       <use x="83.789062" xlink:href="#DejaVuSans-49"/>
       <use x="147.412109" xlink:href="#DejaVuSans-48"/>
       <use x="211.035156" xlink:href="#DejaVuSans-46"/>
       <use x="242.822266" xlink:href="#DejaVuSans-48"/>
      </g>
     </g>
    </g>
    <g id="ytick_2">
     <g id="line2d_11">
      <g>
       <use style="stroke:#000000;stroke-width:0.8;" x="57.6" xlink:href="#ma2275ffbc4" y="274.32"/>
      </g>
     </g>
     <g id="text_11">
      <!-- −7.5 -->
      <g transform="translate(26.317187 278.119219)scale(0.1 -0.1)">
       <use xlink:href="#DejaVuSans-8722"/>
       <use x="83.789062" xlink:href="#DejaVuSans-55"/>
       <use x="147.412109" xlink:href="#DejaVuSans-46"/>
       <use x="179.199219" xlink:href="#DejaVuSans-53"/>
      </g>
     </g>
    </g>
    <g id="ytick_3">
     <g id="line2d_12">
      <g>
       <use style="stroke:#000000;stroke-width:0.8;" x="57.6" xlink:href="#ma2275ffbc4" y="241.056"/>
      </g>
     </g>
     <g id="text_12">
      <!-- −5.0 -->
      <g transform="translate(26.317187 244.855219)scale(0.1 -0.1)">
       <use xlink:href="#DejaVuSans-8722"/>
       <use x="83.789062" xlink:href="#DejaVuSans-53"/>
       <use x="147.412109" xlink:href="#DejaVuSans-46"/>
       <use x="179.199219" xlink:href="#DejaVuSans-48"/>
      </g>
     </g>
    </g>
    <g id="ytick_4">
     <g id="line2d_13">
      <g>
       <use style="stroke:#000000;stroke-width:0.8;" x="57.6" xlink:href="#ma2275ffbc4" y="207.792"/>
      </g>
     </g>
     <g id="text_13">
      <!-- −2.5 -->
      <g transform="translate(26.317187 211.591219)scale(0.1 -0.1)">
       <use xlink:href="#DejaVuSans-8722"/>
       <use x="83.789062" xlink:href="#DejaVuSans-50"/>
       <use x="147.412109" xlink:href="#DejaVuSans-46"/>
       <use x="179.199219" xlink:href="#DejaVuSans-53"/>
      </g>
     </g>
    </g>
    <g id="ytick_5">
     <g id="line2d_14">
      <g>
       <use style="stroke:#000000;stroke-width:0.8;" x="57.6" xlink:href="#ma2275ffbc4" y="174.528"/>
      </g>
     </g>
     <g id="text_14">
      <!-- 0.0 -->
      <g transform="translate(34.696875 178.327219)scale(0.1 -0.1)">
       <use xlink:href="#DejaVuSans-48"/>
       <use x="63.623047" xlink:href="#DejaVuSans-46"/>
       <use x="95.410156" xlink:href="#DejaVuSans-48"/>
      </g>
     </g>
    </g>
    <g id="ytick_6">
     <g id="line2d_15">
      <g>
       <use style="stroke:#000000;stroke-width:0.8;" x="57.6" xlink:href="#ma2275ffbc4" y="141.264"/>
      </g>
     </g>
     <g id="text_15">
      <!-- 2.5 -->
      <g transform="translate(34.696875 145.063219)scale(0.1 -0.1)">
       <use xlink:href="#DejaVuSans-50"/>
       <use x="63.623047" xlink:href="#DejaVuSans-46"/>
       <use x="95.410156" xlink:href="#DejaVuSans-53"/>
      </g>
     </g>
    </g>
    <g id="ytick_7">
     <g id="line2d_16">
      <g>
       <use style="stroke:#000000;stroke-width:0.8;" x="57.6" xlink:href="#ma2275ffbc4" y="108"/>
      </g>
     </g>
     <g id="text_16">
      <!-- 5.0 -->
      <g transform="translate(34.696875 111.799219)scale(0.1 -0.1)">
       <use xlink:href="#DejaVuSans-53"/>
       <use x="63.623047" xlink:href="#DejaVuSans-46"/>
       <use x="95.410156" xlink:href="#DejaVuSans-48"/>
      </g>
     </g>
    </g>
    <g id="ytick_8">
     <g id="line2d_17">
      <g>
       <use style="stroke:#000000;stroke-width:0.8;" x="57.6" xlink:href="#ma2275ffbc4" y="74.736"/>
      </g>
     </g>
     <g id="text_17">
      <!-- 7.5 -->
      <g transform="translate(34.696875 78.535219)scale(0.1 -0.1)">
       <use xlink:href="#DejaVuSans-55"/>
       <use x="63.623047" xlink:href="#DejaVuSans-46"/>
       <use x="95.410156" xlink:href="#DejaVuSans-53"/>
      </g>
     </g>
    </g>
    <g id="ytick_9">
     <g id="line2d_18">
      <g>
       <use style="stroke:#000000;stroke-width:0.8;" x="57.6" xlink:href="#ma2275ffbc4" y="41.472"/>
      </g>
     </g>
     <g id="text_18">
      <!-- 10.0 -->
      <g transform="translate(28.334375 45.271219)scale(0.1 -0.1)">
       <use xlink:href="#DejaVuSans-49"/>
       <use x="63.623047" xlink:href="#DejaVuSans-48"/>
       <use x="127.246094" xlink:href="#DejaVuSans-46"/>
       <use x="159.033203" xlink:href="#DejaVuSans-48"/>
      </g>
     </g>
    </g>
   </g>
   <g id="LineCollection_1"/>
   <g id="LineCollection_2">
    <path clip-path="url(#pdf25815b58)" d="M 162.770393 41.472 
L 167.483077 44.252288 
L 172.629895 48.295385 
L 176.64 51.18868 
L 181.107226 55.118769 
L 185.796923 58.98466 
L 188.848212 61.942154 
L 194.953846 67.542956 
L 196.162132 68.765538 
L 203.144692 75.588923 
L 204.110769 76.480389 
L 209.902429 82.412308 
L 213.267692 85.63698 
L 216.75841 89.235692 
L 222.424615 94.728635 
L 223.719898 96.059077 
L 230.173933 102.882462 
L 231.581538 104.391732 
L 236.142026 109.705846 
L 240.738462 114.679464 
L 242.348252 116.529231 
L 247.848885 123.352615 
L 249.895385 125.976197 
L 252.858517 130.176 
L 257.161091 136.999385 
L 259.052308 140.764188 
L 260.393329 143.822769 
L 261.937258 150.646154 
L 261.139127 157.469538 
L 259.052308 160.137052 
L 249.895385 161.386834 
L 240.738462 158.237357 
L 239.558606 157.469538 
L 231.581538 152.369742 
L 229.605877 150.646154 
L 222.424615 144.816848 
L 221.463938 143.822769 
L 214.559801 136.999385 
L 213.267692 135.818072 
L 208.453475 130.176 
L 204.110769 125.685222 
L 202.282586 123.352615 
L 196.591215 116.529231 
L 194.953846 114.716818 
L 191.32391 109.705846 
L 185.796923 103.09078 
L 185.653092 102.882462 
L 184.899858 101.782918 
" style="fill:none;stroke:#0d8666;stroke-width:1.5;"/>
    <path clip-path="url(#pdf25815b58)" d="M 166.570445 76.566296 
L 165.945054 75.588923 
L 161.510946 68.765538 
L 158.326154 64.412287 
L 156.890031 61.942154 
L 153.252358 55.118769 
L 149.169231 48.382238 
L 149.128616 48.295385 
L 147.513002 41.472 
" style="fill:none;stroke:#0d8666;stroke-width:1.5;"/>
   </g>
   <g id="LineCollection_3">
    <path clip-path="url(#pdf25815b58)" d="M 200.997841 41.472 
L 204.110769 44.15301 
L 208.873011 48.295385 
L 213.267692 52.140707 
L 216.714278 55.118769 
L 222.424615 60.028654 
L 224.681938 61.942154 
L 231.581538 67.815698 
L 232.696017 68.765538 
L 240.705235 75.588923 
L 240.738462 75.617782 
L 248.63415 82.412308 
L 249.895385 83.514001 
L 256.410602 89.133915 
" style="fill:none;stroke:#1a8c66;stroke-width:1.5;"/>
    <path clip-path="url(#pdf25815b58)" d="M 280.047985 109.497738 
L 280.29137 109.705846 
L 286.523077 115.284761 
L 287.930424 116.529231 
L 295.235246 123.352615 
L 295.68 123.803175 
L 301.97672 130.176 
L 304.836923 133.282988 
L 308.227238 136.999385 
L 313.993846 143.811109 
L 314.003516 143.822769 
L 318.941161 150.646154 
L 323.150769 156.861732 
L 323.549674 157.469538 
L 327.443045 164.292923 
L 331.013908 171.116308 
L 332.307692 174.176693 
L 333.844605 177.939692 
L 335.744036 184.763077 
L 337.047867 191.586462 
L 337.748959 198.409846 
L 337.806546 205.233231 
L 337.081937 212.056615 
L 335.206323 218.88 
L 332.307692 224.928909 
L 331.807582 225.703385 
L 325.397981 232.526769 
L 323.150769 234.293485 
L 313.993846 239.299657 
L 313.848406 239.350154 
L 304.836923 242.029247 
L 295.68 243.458031 
L 286.523077 243.901527 
L 277.366154 243.584994 
L 268.209231 242.703372 
L 259.052308 241.487041 
L 249.895385 240.105885 
L 244.392405 239.350154 
L 240.738462 238.755089 
L 231.581538 237.373247 
L 222.424615 236.091153 
L 213.267692 235.303933 
L 204.110769 235.665778 
L 194.953846 237.32817 
L 189.048789 239.350154 
L 185.796923 240.389525 
L 176.64 243.948954 
L 171.99323 246.173538 
L 167.483077 248.113312 
L 159.935161 252.996923 
L 158.326154 254.033151 
L 150.570584 259.820308 
L 149.169231 260.636635 
L 140.012308 265.300691 
L 135.95912 266.643692 
L 130.855385 267.952469 
L 121.698462 268.024824 
L 117.807279 266.643692 
L 112.541538 261.945917 
L 111.422317 259.820308 
L 112.541538 254.29094 
L 112.894428 252.996923 
L 119.211946 246.173538 
L 121.698462 244.227598 
L 129.784106 239.350154 
L 130.855385 238.781164 
L 140.012308 234.289856 
L 143.025826 232.526769 
L 149.169231 228.395239 
L 152.806863 225.703385 
L 158.326154 221.96968 
L 162.744547 218.88 
L 167.483077 214.592985 
L 169.533457 212.056615 
L 174.287426 205.233231 
L 176.64 201.195836 
L 177.579343 198.409846 
L 178.797994 191.586462 
L 178.643662 184.763077 
L 177.602901 177.939692 
L 176.64 174.454551 
L 175.735246 171.116308 
L 173.209956 164.292923 
L 170.651978 157.469538 
L 168.031584 150.646154 
L 167.483077 149.444089 
L 164.976946 143.822769 
L 161.753623 136.999385 
L 158.431026 130.176 
L 158.326154 129.982423 
L 154.838767 123.352615 
L 151.257523 116.529231 
L 149.169231 112.695831 
L 147.564882 109.705846 
L 143.773562 102.882462 
L 140.012308 96.164999 
L 139.9541 96.059077 
L 136.025738 89.235692 
L 132.093873 82.412308 
L 130.855385 80.340555 
L 128.085947 75.588923 
L 124.085792 68.765538 
L 121.698462 64.76282 
L 120.064187 61.942154 
L 116.12151 55.118769 
L 112.541538 48.887981 
L 112.210647 48.295385 
L 108.450219 41.472 
" style="fill:none;stroke:#1a8c66;stroke-width:1.5;"/>
   </g>
   <g id="LineCollection_4">
    <path clip-path="url(#pdf25815b58)" d="M 57.6 112.289516 
L 66.756923 111.467868 
L 75.913846 111.209326 
L 85.070769 110.40682 
L 86.94612 109.705846 
L 94.227692 103.973312 
L 94.779514 102.882462 
L 95.686116 97.860822 
" style="fill:none;stroke:#289366;stroke-width:1.5;"/>
    <path clip-path="url(#pdf25815b58)" d="M 89.650902 67.548057 
L 87.665417 61.942154 
L 85.185601 55.118769 
L 85.070769 54.838155 
L 82.376363 48.295385 
L 79.630247 41.472 
" style="fill:none;stroke:#289366;stroke-width:1.5;"/>
    <path clip-path="url(#pdf25815b58)" d="M 221.96744 41.472 
L 222.424615 41.853147 
L 230.228696 48.295385 
L 231.581538 49.409625 
L 238.590339 55.118769 
L 240.738462 56.884885 
L 247.049541 61.942154 
L 249.895385 64.249096 
L 255.650399 68.765538 
L 259.052308 71.47162 
L 264.368412 75.588923 
L 268.209231 78.638858 
L 273.057748 82.412308 
L 277.366154 85.825048 
L 281.795693 89.235692 
L 286.523077 92.952237 
L 290.591237 96.059077 
L 295.68 100.029658 
L 299.454974 102.882462 
L 304.836923 107.147257 
L 308.129595 109.705846 
L 313.993846 114.495274 
L 316.519384 116.529231 
L 323.150769 122.218074 
L 324.484955 123.352615 
L 331.876832 130.176 
L 332.307692 130.6142 
L 338.52932 136.999385 
L 341.464615 140.25965 
L 344.623415 143.822769 
L 350.245284 150.646154 
L 350.621538 151.148562 
L 355.244537 157.469538 
L 359.778462 164.032596 
L 359.953045 164.292923 
L 364.084609 171.116308 
L 367.985782 177.939692 
L 368.935385 179.825409 
L 371.341065 184.763077 
L 374.242498 191.586462 
L 376.915871 198.409846 
L 378.092308 201.767338 
L 379.264943 205.233231 
L 381.406564 212.056615 
L 383.238836 218.88 
L 384.718752 225.703385 
L 385.622757 232.526769 
L 385.612694 238.384869 
" style="fill:none;stroke:#289366;stroke-width:1.5;"/>
    <path clip-path="url(#pdf25815b58)" d="M 369.175599 263.433506 
L 368.935385 263.608097 
L 364.211601 266.643692 
L 359.778462 269.079002 
L 350.832043 273.467077 
L 350.621538 273.56222 
L 341.464615 277.313753 
L 333.315799 280.290462 
L 332.307692 280.631651 
L 323.150769 283.268278 
L 313.993846 285.93696 
L 310.193161 287.113846 
L 304.836923 288.694722 
L 295.68 290.746864 
L 286.523077 292.300275 
L 277.366154 293.747651 
L 276.166282 293.937231 
L 268.209231 295.090012 
L 259.052308 296.47847 
L 249.895385 297.942774 
L 240.738462 299.709218 
L 236.37695 300.760615 
L 231.581538 301.919026 
L 222.424615 304.706245 
L 214.462702 307.584 
" style="fill:none;stroke:#289366;stroke-width:1.5;"/>
   </g>
   <g id="LineCollection_5">
    <path clip-path="url(#pdf25815b58)" d="M 414.72 267.369575 
L 407.998954 273.467077 
L 405.563077 275.287361 
L 398.361201 280.290462 
L 396.406154 281.518963 
L 391.812268 284.203487 
" style="fill:none;stroke:#359a66;stroke-width:1.5;"/>
    <path clip-path="url(#pdf25815b58)" d="M 363.975887 298.25151 
L 359.778462 300.101514 
L 358.165936 300.760615 
L 350.621538 303.681164 
L 341.464615 307.038131 
L 339.897505 307.584 
" style="fill:none;stroke:#359a66;stroke-width:1.5;"/>
    <path clip-path="url(#pdf25815b58)" d="M 239.091453 41.472 
L 240.738462 42.78512 
L 247.870684 48.295385 
L 249.895385 49.879176 
L 256.80294 55.118769 
L 259.052308 56.848605 
L 265.887588 61.942154 
L 268.209231 63.698737 
L 275.058104 68.765538 
L 277.366154 70.510337 
L 284.19651 75.588923 
L 286.523077 77.346744 
L 293.45822 82.412308 
L 295.68 84.068208 
L 299.680905 86.951736 
" style="fill:none;stroke:#359a66;stroke-width:1.5;"/>
    <path clip-path="url(#pdf25815b58)" d="M 324.919511 105.29279 
L 330.859586 109.705846 
L 332.307692 110.841318 
L 339.651115 116.529231 
L 341.464615 118.037869 
L 347.875347 123.352615 
L 350.621538 125.813378 
L 355.482576 130.176 
L 359.778462 134.376473 
L 362.441422 136.999385 
L 368.814286 143.822769 
L 368.935385 143.965445 
L 374.48151 150.646154 
L 378.092308 155.261774 
L 379.775912 157.469538 
L 384.602152 164.292923 
L 387.249231 168.266289 
L 389.094626 171.116308 
L 393.238398 177.939692 
L 396.406154 183.40656 
L 397.170048 184.763077 
L 400.751513 191.586462 
L 404.218546 198.409846 
L 405.563077 201.254338 
L 407.391355 205.233231 
L 410.441336 212.056615 
L 413.421261 218.88 
L 414.72 222.146694 
" style="fill:none;stroke:#359a66;stroke-width:1.5;"/>
   </g>
   <g id="LineCollection_6">
    <path clip-path="url(#pdf25815b58)" d="M 414.72 296.895707 
L 408.181724 300.760615 
L 405.563077 302.272442 
L 396.406154 307.36903 
L 396.002053 307.584 
" style="fill:none;stroke:#43a166;stroke-width:1.5;"/>
    <path clip-path="url(#pdf25815b58)" d="M 254.573892 41.472 
L 259.052308 44.820393 
L 263.843887 48.295385 
L 268.209231 51.503688 
L 273.236317 55.118769 
L 277.366154 58.132824 
L 282.69276 61.942154 
L 286.523077 64.733486 
L 292.183684 68.765538 
L 295.68 71.293956 
L 301.816474 75.588923 
L 304.836923 77.737668 
L 311.561757 82.412308 
L 313.993846 84.130215 
L 318.438252 87.186911 
" style="fill:none;stroke:#43a166;stroke-width:1.5;"/>
    <path clip-path="url(#pdf25815b58)" d="M 344.003385 105.070242 
L 350.448892 109.705846 
L 350.621538 109.837919 
L 359.486639 116.529231 
L 359.778462 116.766163 
L 367.930339 123.352615 
L 368.935385 124.234378 
L 375.671547 130.176 
L 378.092308 132.513013 
L 382.683615 136.999385 
L 387.249231 141.847376 
L 389.074882 143.822769 
L 394.888832 150.646154 
L 396.406154 152.560685 
L 400.202472 157.469538 
L 405.231414 164.292923 
L 405.563077 164.775244 
L 409.812223 171.116308 
L 414.235102 177.939692 
L 414.72 178.731639 
" style="fill:none;stroke:#43a166;stroke-width:1.5;"/>
   </g>
   <g id="LineCollection_7">
    <path clip-path="url(#pdf25815b58)" d="M 269.059199 41.472 
L 277.366154 47.390817 
L 278.654722 48.295385 
L 286.523077 53.881067 
L 288.312962 55.118769 
L 295.68 60.299868 
L 298.065534 61.942154 
L 304.836923 66.66965 
L 307.916584 68.765538 
L 313.993846 72.960043 
L 317.869199 75.588923 
L 323.150769 79.217381 
L 327.946364 82.412308 
L 332.307692 85.36797 
L 335.25156 87.326124 
" style="fill:none;stroke:#50a866;stroke-width:1.5;"/>
    <path clip-path="url(#pdf25815b58)" d="M 361.027797 104.903435 
L 367.850426 109.705846 
L 368.935385 110.518157 
L 377.059423 116.529231 
L 378.092308 117.351301 
L 385.608959 123.352615 
L 387.249231 124.783155 
L 393.385415 130.176 
L 396.406154 133.08593 
L 400.407344 136.999385 
L 405.563077 142.466196 
L 406.81811 143.822769 
L 412.631258 150.646154 
L 414.72 153.255543 
" style="fill:none;stroke:#50a866;stroke-width:1.5;"/>
   </g>
   <g id="LineCollection_8">
    <path clip-path="url(#pdf25815b58)" d="M 282.53616 41.472 
L 286.523077 44.281245 
L 292.378188 48.295385 
L 295.68 50.589013 
L 302.349256 55.118769 
L 304.836923 56.839497 
L 312.374348 61.942154 
L 313.993846 63.050641 
L 322.489797 68.765538 
L 323.150769 69.216573 
L 332.307692 75.316123 
L 332.726516 75.588923 
L 337.610806 78.812915 
" style="fill:none;stroke:#5eae66;stroke-width:1.5;"/>
    <path clip-path="url(#pdf25815b58)" d="M 363.632387 96.026177 
L 363.682647 96.059077 
L 368.935385 99.606353 
L 373.838896 102.882462 
L 378.092308 105.860554 
L 383.645447 109.705846 
L 387.249231 112.362842 
L 392.917491 116.529231 
L 396.406154 119.29753 
L 401.489039 123.352615 
L 405.563077 126.914613 
L 409.25204 130.176 
L 414.72 135.467084 
" style="fill:none;stroke:#5eae66;stroke-width:1.5;"/>
   </g>
   <g id="LineCollection_9">
    <path clip-path="url(#pdf25815b58)" d="M 295.283028 41.472 
L 295.68 41.74548 
L 304.836923 47.918683 
L 305.404661 48.295385 
L 313.993846 54.094383 
L 315.530202 55.118769 
L 323.150769 60.254528 
L 325.713196 61.942154 
L 332.307692 66.333414 
L 336.04917 68.765538 
L 341.464615 72.321366 
L 343.995933 73.949339 
" style="fill:none;stroke:#6bb566;stroke-width:1.5;"/>
    <path clip-path="url(#pdf25815b58)" d="M 370.182476 90.910686 
L 378.092308 96.053987 
L 378.100209 96.059077 
L 387.249231 102.161631 
L 388.337639 102.882462 
L 396.406154 108.47748 
L 398.187809 109.705846 
L 405.563077 115.129988 
L 407.464393 116.529231 
L 414.72 122.320306 
" style="fill:none;stroke:#6bb566;stroke-width:1.5;"/>
   </g>
   <g id="LineCollection_10">
    <path clip-path="url(#pdf25815b58)" d="M 307.374415 41.472 
L 313.993846 45.890033 
L 317.631949 48.295385 
L 323.150769 51.997133 
L 327.899145 55.118769 
L 332.307692 58.042378 
L 338.331968 61.942154 
L 341.464615 63.994014 
L 346.625939 67.305756 
" style="fill:none;stroke:#79bc66;stroke-width:1.5;"/>
    <path clip-path="url(#pdf25815b58)" d="M 372.911961 84.112749 
L 378.092308 87.456047 
L 380.892743 89.235692 
L 387.249231 93.362202 
L 391.449083 96.059077 
L 396.406154 99.361779 
L 401.743264 102.882462 
L 405.563077 105.525872 
L 411.605403 109.705846 
L 414.72 111.99937 
" style="fill:none;stroke:#79bc66;stroke-width:1.5;"/>
   </g>
   <g id="LineCollection_11">
    <path clip-path="url(#pdf25815b58)" d="M 318.887544 41.472 
L 323.150769 44.307255 
L 329.227765 48.295385 
L 332.307692 50.334173 
L 339.715456 55.118769 
L 341.464615 56.259755 
L 350.335143 61.942154 
L 350.621538 62.12747 
L 355.752813 65.389958 
" style="fill:none;stroke:#86c266;stroke-width:1.5;"/>
    <path clip-path="url(#pdf25815b58)" d="M 382.120367 82.068708 
L 382.666477 82.412308 
L 387.249231 85.348525 
L 393.404688 89.235692 
L 396.406154 91.176996 
L 404.009809 96.059077 
L 405.563077 97.090154 
L 414.322439 102.882462 
L 414.72 103.1585 
" style="fill:none;stroke:#86c266;stroke-width:1.5;"/>
   </g>
   <g id="LineCollection_12">
    <path clip-path="url(#pdf25815b58)" d="M 329.838258 41.472 
L 332.307692 43.102846 
L 340.357083 48.295385 
L 341.464615 49.015879 
L 350.621538 54.875045 
L 351.00709 55.118769 
L 359.457073 60.508148 
" style="fill:none;stroke:#94ca66;stroke-width:1.5;"/>
    <path clip-path="url(#pdf25815b58)" d="M 385.901979 77.063932 
L 387.249231 77.918829 
L 394.442421 82.412308 
L 396.406154 83.662563 
L 405.249109 89.235692 
L 405.563077 89.438702 
L 414.72 95.344035 
" style="fill:none;stroke:#94ca66;stroke-width:1.5;"/>
   </g>
   <g id="LineCollection_13">
    <path clip-path="url(#pdf25815b58)" d="M 340.343209 41.472 
L 341.464615 42.200843 
L 350.621538 48.050045 
L 351.009664 48.295385 
L 359.778462 53.882197 
L 361.76561 55.118769 
L 364.838134 57.042403 
" style="fill:none;stroke:#a1d066;stroke-width:1.5;"/>
    <path clip-path="url(#pdf25815b58)" d="M 391.342345 73.503051 
L 394.706525 75.588923 
L 396.406154 76.659637 
L 405.563077 82.367954 
L 405.63441 82.412308 
L 414.72 88.164286 
" style="fill:none;stroke:#a1d066;stroke-width:1.5;"/>
   </g>
   <g id="LineCollection_14">
    <path clip-path="url(#pdf25815b58)" d="M 350.477746 41.472 
L 350.621538 41.564338 
L 359.778462 47.39444 
L 361.22447 48.295385 
L 368.935385 53.136174 
L 369.983458 53.776973 
" style="fill:none;stroke:#afd766;stroke-width:1.5;"/>
    <path clip-path="url(#pdf25815b58)" d="M 396.539788 70.153527 
L 405.347854 75.588923 
L 405.563077 75.724114 
L 414.72 81.45909 
" style="fill:none;stroke:#afd766;stroke-width:1.5;"/>
   </g>
   <g id="LineCollection_15">
    <path clip-path="url(#pdf25815b58)" d="M 360.197036 41.472 
L 368.935385 46.96322 
L 371.108325 48.295385 
L 373.952834 50.051424 
" style="fill:none;stroke:#bcde66;stroke-width:1.5;"/>
    <path clip-path="url(#pdf25815b58)" d="M 400.544936 66.369819 
L 404.454759 68.765538 
L 405.563077 69.455256 
L 414.72 75.119071 
" style="fill:none;stroke:#bcde66;stroke-width:1.5;"/>
   </g>
   <g id="LineCollection_16">
    <path clip-path="url(#pdf25815b58)" d="M 369.609189 41.472 
L 378.092308 46.719237 
L 380.699279 48.295385 
L 383.096414 49.760804 
" style="fill:none;stroke:#cae466;stroke-width:1.5;"/>
    <path clip-path="url(#pdf25815b58)" d="M 409.715396 66.0354 
L 414.17478 68.765538 
L 414.72 69.104389 
" style="fill:none;stroke:#cae466;stroke-width:1.5;"/>
   </g>
   <g id="LineCollection_17">
    <path clip-path="url(#pdf25815b58)" d="M 378.773348 41.472 
L 387.249231 46.644176 
L 387.860782 47.013219 
" style="fill:none;stroke:#d7eb66;stroke-width:1.5;"/>
    <path clip-path="url(#pdf25815b58)" d="M 414.503723 63.24851 
L 414.72 63.381987 
" style="fill:none;stroke:#d7eb66;stroke-width:1.5;"/>
   </g>
   <g id="LineCollection_18">
    <path clip-path="url(#pdf25815b58)" d="M 387.692822 41.472 
L 396.406154 46.775707 
L 398.934674 48.295385 
L 405.563077 52.340199 
L 410.168907 55.118769 
L 414.72 57.901784 
" style="fill:none;stroke:#e5f266;stroke-width:1.5;"/>
   </g>
   <g id="LineCollection_19">
    <path clip-path="url(#pdf25815b58)" d="M 396.319744 41.472 
L 396.406154 41.524596 
L 405.563077 47.073377 
L 407.600379 48.295385 
L 414.72 52.627454 
" style="fill:none;stroke:#f2f866;stroke-width:1.5;"/>
   </g>
   <g id="LineCollection_20">
    <path clip-path="url(#pdf25815b58)" d="M 404.675364 41.472 
L 405.563077 42.010106 
L 414.72 47.530465 
" style="fill:none;stroke:#ffff66;stroke-width:1.5;"/>
   </g>
   <g id="patch_3">
    <path d="M 57.6 307.584 
L 57.6 41.472 
" style="fill:none;stroke:#000000;stroke-linecap:square;stroke-linejoin:miter;stroke-width:0.8;"/>
   </g>
   <g id="patch_4">
    <path d="M 414.72 307.584 
L 414.72 41.472 
" style="fill:none;stroke:#000000;stroke-linecap:square;stroke-linejoin:miter;stroke-width:0.8;"/>
   </g>
   <g id="patch_5">
    <path d="M 57.6 307.584 
L 414.72 307.584 
" style="fill:none;stroke:#000000;stroke-linecap:square;stroke-linejoin:miter;stroke-width:0.8;"/>
   </g>
   <g id="patch_6">
    <path d="M 57.6 41.472 
L 414.72 41.472 
" style="fill:none;stroke:#000000;stroke-linecap:square;stroke-linejoin:miter;stroke-width:0.8;"/>
   </g>
   <g id="text_19">
    <g clip-path="url(#pdf25815b58)">
     <!-- 0.600 -->
     <defs>
      <path d="M 33.015625 40.375 
Q 26.375 40.375 22.484375 35.828125 
Q 18.609375 31.296875 18.609375 23.390625 
Q 18.609375 15.53125 22.484375 10.953125 
Q 26.375 6.390625 33.015625 6.390625 
Q 39.65625 6.390625 43.53125 10.953125 
Q 47.40625 15.53125 47.40625 23.390625 
Q 47.40625 31.296875 43.53125 35.828125 
Q 39.65625 40.375 33.015625 40.375 
z
M 52.59375 71.296875 
L 52.59375 62.3125 
Q 48.875 64.0625 45.09375 64.984375 
Q 41.3125 65.921875 37.59375 65.921875 
Q 27.828125 65.921875 22.671875 59.328125 
Q 17.53125 52.734375 16.796875 39.40625 
Q 19.671875 43.65625 24.015625 45.921875 
Q 28.375 48.1875 33.59375 48.1875 
Q 44.578125 48.1875 50.953125 41.515625 
Q 57.328125 34.859375 57.328125 23.390625 
Q 57.328125 12.15625 50.6875 5.359375 
Q 44.046875 -1.421875 33.015625 -1.421875 
Q 20.359375 -1.421875 13.671875 8.265625 
Q 6.984375 17.96875 6.984375 36.375 
Q 6.984375 53.65625 15.1875 63.9375 
Q 23.390625 74.21875 37.203125 74.21875 
Q 40.921875 74.21875 44.703125 73.484375 
Q 48.484375 72.75 52.59375 71.296875 
z
" id="DejaVuSans-54"/>
     </defs>
     <g style="fill:#0d8666;" transform="translate(167.094883 81.313597)rotate(-306.299477)scale(0.08 -0.08)">
      <use xlink:href="#DejaVuSans-48"/>
      <use x="63.623047" xlink:href="#DejaVuSans-46"/>
      <use x="95.410156" xlink:href="#DejaVuSans-54"/>
      <use x="159.033203" xlink:href="#DejaVuSans-48"/>
      <use x="222.65625" xlink:href="#DejaVuSans-48"/>
     </g>
    </g>
   </g>
   <g id="text_20">
    <g clip-path="url(#pdf25815b58)">
     <!-- 1.100 -->
     <g style="fill:#1a8c66;" transform="translate(258.088373 93.544987)rotate(-319.297669)scale(0.08 -0.08)">
      <use xlink:href="#DejaVuSans-49"/>
      <use x="63.623047" xlink:href="#DejaVuSans-46"/>
      <use x="95.410156" xlink:href="#DejaVuSans-49"/>
      <use x="159.033203" xlink:href="#DejaVuSans-48"/>
      <use x="222.65625" xlink:href="#DejaVuSans-48"/>
     </g>
    </g>
   </g>
   <g id="text_21">
    <g clip-path="url(#pdf25815b58)">
     <!-- 1.600 -->
     <g style="fill:#289366;" transform="translate(89.775713 71.696754)rotate(-282.332076)scale(0.08 -0.08)">
      <use xlink:href="#DejaVuSans-49"/>
      <use x="63.623047" xlink:href="#DejaVuSans-46"/>
      <use x="95.410156" xlink:href="#DejaVuSans-54"/>
      <use x="159.033203" xlink:href="#DejaVuSans-48"/>
      <use x="222.65625" xlink:href="#DejaVuSans-48"/>
     </g>
    </g>
   </g>
   <g id="text_22">
    <g clip-path="url(#pdf25815b58)">
     <!-- 1.600 -->
     <g style="fill:#289366;" transform="translate(376.147862 263.741554)rotate(-56.210074)scale(0.08 -0.08)">
      <use xlink:href="#DejaVuSans-49"/>
      <use x="63.623047" xlink:href="#DejaVuSans-46"/>
      <use x="95.410156" xlink:href="#DejaVuSans-54"/>
      <use x="159.033203" xlink:href="#DejaVuSans-48"/>
      <use x="222.65625" xlink:href="#DejaVuSans-48"/>
     </g>
    </g>
   </g>
   <g id="text_23">
    <g clip-path="url(#pdf25815b58)">
     <!-- 2.100 -->
     <g style="fill:#359a66;" transform="translate(368.853857 298.735639)rotate(-26.699167)scale(0.08 -0.08)">
      <use xlink:href="#DejaVuSans-50"/>
      <use x="63.623047" xlink:href="#DejaVuSans-46"/>
      <use x="95.410156" xlink:href="#DejaVuSans-49"/>
      <use x="159.033203" xlink:href="#DejaVuSans-48"/>
      <use x="222.65625" xlink:href="#DejaVuSans-48"/>
     </g>
    </g>
   </g>
   <g id="text_24">
    <g clip-path="url(#pdf25815b58)">
     <!-- 2.100 -->
     <g style="fill:#359a66;" transform="translate(301.777279 91.129512)rotate(-324.083548)scale(0.08 -0.08)">
      <use xlink:href="#DejaVuSans-50"/>
      <use x="63.623047" xlink:href="#DejaVuSans-46"/>
      <use x="95.410156" xlink:href="#DejaVuSans-49"/>
      <use x="159.033203" xlink:href="#DejaVuSans-48"/>
      <use x="222.65625" xlink:href="#DejaVuSans-48"/>
     </g>
    </g>
   </g>
   <g id="text_25">
    <g clip-path="url(#pdf25815b58)">
     <!-- 2.600 -->
     <g style="fill:#43a166;" transform="translate(320.616553 91.313727)rotate(-325.078222)scale(0.08 -0.08)">
      <use xlink:href="#DejaVuSans-50"/>
      <use x="63.623047" xlink:href="#DejaVuSans-46"/>
      <use x="95.410156" xlink:href="#DejaVuSans-54"/>
      <use x="159.033203" xlink:href="#DejaVuSans-48"/>
      <use x="222.65625" xlink:href="#DejaVuSans-48"/>
     </g>
    </g>
   </g>
   <g id="text_26">
    <g clip-path="url(#pdf25815b58)">
     <!-- 3.100 -->
     <defs>
      <path d="M 40.578125 39.3125 
Q 47.65625 37.796875 51.625 33 
Q 55.609375 28.21875 55.609375 21.1875 
Q 55.609375 10.40625 48.1875 4.484375 
Q 40.765625 -1.421875 27.09375 -1.421875 
Q 22.515625 -1.421875 17.65625 -0.515625 
Q 12.796875 0.390625 7.625 2.203125 
L 7.625 11.71875 
Q 11.71875 9.328125 16.59375 8.109375 
Q 21.484375 6.890625 26.8125 6.890625 
Q 36.078125 6.890625 40.9375 10.546875 
Q 45.796875 14.203125 45.796875 21.1875 
Q 45.796875 27.640625 41.28125 31.265625 
Q 36.765625 34.90625 28.71875 34.90625 
L 20.21875 34.90625 
L 20.21875 43.015625 
L 29.109375 43.015625 
Q 36.375 43.015625 40.234375 45.921875 
Q 44.09375 48.828125 44.09375 54.296875 
Q 44.09375 59.90625 40.109375 62.90625 
Q 36.140625 65.921875 28.71875 65.921875 
Q 24.65625 65.921875 20.015625 65.03125 
Q 15.375 64.15625 9.8125 62.3125 
L 9.8125 71.09375 
Q 15.4375 72.65625 20.34375 73.4375 
Q 25.25 74.21875 29.59375 74.21875 
Q 40.828125 74.21875 47.359375 69.109375 
Q 53.90625 64.015625 53.90625 55.328125 
Q 53.90625 49.265625 50.4375 45.09375 
Q 46.96875 40.921875 40.578125 39.3125 
z
" id="DejaVuSans-51"/>
     </defs>
     <g style="fill:#50a866;" transform="translate(337.469167 91.440883)rotate(-325.760323)scale(0.08 -0.08)">
      <use xlink:href="#DejaVuSans-51"/>
      <use x="63.623047" xlink:href="#DejaVuSans-46"/>
      <use x="95.410156" xlink:href="#DejaVuSans-49"/>
      <use x="159.033203" xlink:href="#DejaVuSans-48"/>
      <use x="222.65625" xlink:href="#DejaVuSans-48"/>
     </g>
    </g>
   </g>
   <g id="text_27">
    <g clip-path="url(#pdf25815b58)">
     <!-- 3.600 -->
     <g style="fill:#5eae66;" transform="translate(339.856803 82.933697)rotate(-326.46548)scale(0.08 -0.08)">
      <use xlink:href="#DejaVuSans-51"/>
      <use x="63.623047" xlink:href="#DejaVuSans-46"/>
      <use x="95.410156" xlink:href="#DejaVuSans-54"/>
      <use x="159.033203" xlink:href="#DejaVuSans-48"/>
      <use x="222.65625" xlink:href="#DejaVuSans-48"/>
     </g>
    </g>
   </g>
   <g id="text_28">
    <g clip-path="url(#pdf25815b58)">
     <!-- 4.100 -->
     <defs>
      <path d="M 37.796875 64.3125 
L 12.890625 25.390625 
L 37.796875 25.390625 
z
M 35.203125 72.90625 
L 47.609375 72.90625 
L 47.609375 25.390625 
L 58.015625 25.390625 
L 58.015625 17.1875 
L 47.609375 17.1875 
L 47.609375 0 
L 37.796875 0 
L 37.796875 17.1875 
L 4.890625 17.1875 
L 4.890625 26.703125 
z
" id="DejaVuSans-52"/>
     </defs>
     <g style="fill:#6bb566;" transform="translate(346.28798 78.043138)rotate(-327.0862)scale(0.08 -0.08)">
      <use xlink:href="#DejaVuSans-52"/>
      <use x="63.623047" xlink:href="#DejaVuSans-46"/>
      <use x="95.410156" xlink:href="#DejaVuSans-49"/>
      <use x="159.033203" xlink:href="#DejaVuSans-48"/>
      <use x="222.65625" xlink:href="#DejaVuSans-48"/>
     </g>
    </g>
   </g>
   <g id="text_29">
    <g clip-path="url(#pdf25815b58)">
     <!-- 4.600 -->
     <g style="fill:#79bc66;" transform="translate(348.93777 71.395068)rotate(-327.456195)scale(0.08 -0.08)">
      <use xlink:href="#DejaVuSans-52"/>
      <use x="63.623047" xlink:href="#DejaVuSans-46"/>
      <use x="95.410156" xlink:href="#DejaVuSans-54"/>
      <use x="159.033203" xlink:href="#DejaVuSans-48"/>
      <use x="222.65625" xlink:href="#DejaVuSans-48"/>
     </g>
    </g>
   </g>
   <g id="text_30">
    <g clip-path="url(#pdf25815b58)">
     <!-- 5.100 -->
     <g style="fill:#86c266;" transform="translate(358.077692 69.475169)rotate(-327.683905)scale(0.08 -0.08)">
      <use xlink:href="#DejaVuSans-53"/>
      <use x="63.623047" xlink:href="#DejaVuSans-46"/>
      <use x="95.410156" xlink:href="#DejaVuSans-49"/>
      <use x="159.033203" xlink:href="#DejaVuSans-48"/>
      <use x="222.65625" xlink:href="#DejaVuSans-48"/>
     </g>
    </g>
   </g>
   <g id="text_31">
    <g clip-path="url(#pdf25815b58)">
     <!-- 5.600 -->
     <g style="fill:#94ca66;" transform="translate(361.813134 64.564683)rotate(-327.975336)scale(0.08 -0.08)">
      <use xlink:href="#DejaVuSans-53"/>
      <use x="63.623047" xlink:href="#DejaVuSans-46"/>
      <use x="95.410156" xlink:href="#DejaVuSans-54"/>
      <use x="159.033203" xlink:href="#DejaVuSans-48"/>
      <use x="222.65625" xlink:href="#DejaVuSans-48"/>
     </g>
    </g>
   </g>
   <g id="text_32">
    <g clip-path="url(#pdf25815b58)">
     <!-- 6.100 -->
     <g style="fill:#a1d066;" transform="translate(367.198028 61.107771)rotate(-328.181968)scale(0.08 -0.08)">
      <use xlink:href="#DejaVuSans-54"/>
      <use x="63.623047" xlink:href="#DejaVuSans-46"/>
      <use x="95.410156" xlink:href="#DejaVuSans-49"/>
      <use x="159.033203" xlink:href="#DejaVuSans-48"/>
      <use x="222.65625" xlink:href="#DejaVuSans-48"/>
     </g>
    </g>
   </g>
   <g id="text_33">
    <g clip-path="url(#pdf25815b58)">
     <!-- 6.600 -->
     <g style="fill:#afd766;" transform="translate(372.369336 57.812829)rotate(-328.351582)scale(0.08 -0.08)">
      <use xlink:href="#DejaVuSans-54"/>
      <use x="63.623047" xlink:href="#DejaVuSans-46"/>
      <use x="95.410156" xlink:href="#DejaVuSans-54"/>
      <use x="159.033203" xlink:href="#DejaVuSans-48"/>
      <use x="222.65625" xlink:href="#DejaVuSans-48"/>
     </g>
    </g>
   </g>
   <g id="text_34">
    <g clip-path="url(#pdf25815b58)">
     <!-- 7.100 -->
     <g style="fill:#bcde66;" transform="translate(376.33333 54.105466)rotate(-328.481693)scale(0.08 -0.08)">
      <use xlink:href="#DejaVuSans-55"/>
      <use x="63.623047" xlink:href="#DejaVuSans-46"/>
      <use x="95.410156" xlink:href="#DejaVuSans-49"/>
      <use x="159.033203" xlink:href="#DejaVuSans-48"/>
      <use x="222.65625" xlink:href="#DejaVuSans-48"/>
     </g>
    </g>
   </g>
   <g id="text_35">
    <g clip-path="url(#pdf25815b58)">
     <!-- 7.600 -->
     <g style="fill:#cae466;" transform="translate(385.484401 53.808734)rotate(-328.563547)scale(0.08 -0.08)">
      <use xlink:href="#DejaVuSans-55"/>
      <use x="63.623047" xlink:href="#DejaVuSans-46"/>
      <use x="95.410156" xlink:href="#DejaVuSans-54"/>
      <use x="159.033203" xlink:href="#DejaVuSans-48"/>
      <use x="222.65625" xlink:href="#DejaVuSans-48"/>
     </g>
    </g>
   </g>
   <g id="text_36">
    <g clip-path="url(#pdf25815b58)">
     <!-- 8.100 -->
     <defs>
      <path d="M 31.78125 34.625 
Q 24.75 34.625 20.71875 30.859375 
Q 16.703125 27.09375 16.703125 20.515625 
Q 16.703125 13.921875 20.71875 10.15625 
Q 24.75 6.390625 31.78125 6.390625 
Q 38.8125 6.390625 42.859375 10.171875 
Q 46.921875 13.96875 46.921875 20.515625 
Q 46.921875 27.09375 42.890625 30.859375 
Q 38.875 34.625 31.78125 34.625 
z
M 21.921875 38.8125 
Q 15.578125 40.375 12.03125 44.71875 
Q 8.5 49.078125 8.5 55.328125 
Q 8.5 64.0625 14.71875 69.140625 
Q 20.953125 74.21875 31.78125 74.21875 
Q 42.671875 74.21875 48.875 69.140625 
Q 55.078125 64.0625 55.078125 55.328125 
Q 55.078125 49.078125 51.53125 44.71875 
Q 48 40.375 41.703125 38.8125 
Q 48.828125 37.15625 52.796875 32.3125 
Q 56.78125 27.484375 56.78125 20.515625 
Q 56.78125 9.90625 50.3125 4.234375 
Q 43.84375 -1.421875 31.78125 -1.421875 
Q 19.734375 -1.421875 13.25 4.234375 
Q 6.78125 9.90625 6.78125 20.515625 
Q 6.78125 27.484375 10.78125 32.3125 
Q 14.796875 37.15625 21.921875 38.8125 
z
M 18.3125 54.390625 
Q 18.3125 48.734375 21.84375 45.5625 
Q 25.390625 42.390625 31.78125 42.390625 
Q 38.140625 42.390625 41.71875 45.5625 
Q 45.3125 48.734375 45.3125 54.390625 
Q 45.3125 60.0625 41.71875 63.234375 
Q 38.140625 66.40625 31.78125 66.40625 
Q 25.390625 66.40625 21.84375 63.234375 
Q 18.3125 60.0625 18.3125 54.390625 
z
" id="DejaVuSans-56"/>
     </defs>
     <g style="fill:#d7eb66;" transform="translate(390.26169 51.046406)rotate(-328.650524)scale(0.08 -0.08)">
      <use xlink:href="#DejaVuSans-56"/>
      <use x="63.623047" xlink:href="#DejaVuSans-46"/>
      <use x="95.410156" xlink:href="#DejaVuSans-49"/>
      <use x="159.033203" xlink:href="#DejaVuSans-48"/>
      <use x="222.65625" xlink:href="#DejaVuSans-48"/>
     </g>
    </g>
   </g>
  </g>
 </g>
 <defs>
  <clipPath id="pdf25815b58">
   <rect height="266.112" width="357.12" x="57.6" y="41.472"/>
  </clipPath>
 </defs>
</svg>
